<svg width="19" height="17" viewBox="0 0 19 17" fill="none" xmlns="http://www.w3.org/2000/svg">
<path d="M11.5834 16.8333C12.1359 16.8333 12.6658 16.6138 13.0566 16.2231C13.4473 15.8324 13.6667 15.3025 13.6667 14.75C13.6667 14.1975 13.4473 13.6676 13.0566 13.2768C12.6658 12.8861 12.1359 12.6667 11.5834 12.6667C11.0309 12.6667 10.501 12.8861 10.1103 13.2768C9.71957 13.6676 9.50008 14.1975 9.50008 14.75C9.50008 15.3025 9.71957 15.8324 10.1103 16.2231C10.501 16.6138 11.0309 16.8333 11.5834 16.8333ZM4.29174 16.8333C4.84428 16.8333 5.37418 16.6138 5.76488 16.2231C6.15558 15.8324 6.37508 15.3025 6.37508 14.75C6.37508 14.1975 6.15558 13.6676 5.76488 13.2768C5.37418 12.8861 4.84428 12.6667 4.29174 12.6667C3.73921 12.6667 3.20931 12.8861 2.81861 13.2768C2.4279 13.6676 2.20841 14.1975 2.20841 14.75C2.20841 15.3025 2.4279 15.8324 2.81861 16.2231C3.20931 16.6138 3.73921 16.8333 4.29174 16.8333ZM17.873 2.16978C18.133 2.16139 18.3796 2.0522 18.5606 1.86528C18.7416 1.67837 18.8428 1.42839 18.8428 1.16822C18.8428 0.908044 18.7416 0.658067 18.5606 0.471154C18.3796 0.28424 18.133 0.175044 17.873 0.166656H16.674C15.7345 0.166656 14.922 0.81874 14.7178 1.73541L13.4126 7.61249C13.2084 8.52915 12.3959 9.18124 11.4563 9.18124H3.63133L2.12924 3.17082H11.8636C12.1212 3.15907 12.3644 3.04847 12.5425 2.86202C12.7206 2.67558 12.82 2.42764 12.82 2.16978C12.82 1.91192 12.7206 1.66398 12.5425 1.47754C12.3644 1.2911 12.1212 1.18049 11.8636 1.16874H2.12924C1.82473 1.16865 1.5242 1.23799 1.25051 1.37148C0.976816 1.50498 0.737162 1.69912 0.549763 1.93914C0.362364 2.17916 0.232155 2.45875 0.169035 2.75665C0.105913 3.05455 0.111544 3.36292 0.185495 3.65832L1.68758 9.66665C1.79586 10.1002 2.046 10.4851 2.39821 10.7601C2.75042 11.0351 3.18447 11.1844 3.63133 11.1844H11.4563C12.368 11.1845 13.2524 10.8737 13.9636 10.3032C14.6748 9.73278 15.1701 8.93684 15.3678 8.04686L16.674 2.16978H17.873Z" fill="black"/>
</svg>
