<svg width="27" height="28" viewBox="0 0 27 28" fill="none" xmlns="http://www.w3.org/2000/svg">
<g filter="url(#filter0_d_179_17897)">
<path d="M4 1.63333C4 1.46536 4.06673 1.30427 4.1855 1.1855C4.30428 1.06673 4.46538 1 4.63335 1H6.53341C6.67469 1.00004 6.8119 1.04731 6.92322 1.1343C7.03454 1.22129 7.11357 1.34299 7.14776 1.48007L7.66078 3.53333H22.3672C22.4602 3.53342 22.5521 3.55398 22.6362 3.59356C22.7204 3.63315 22.7948 3.69077 22.8541 3.76235C22.9135 3.83393 22.9564 3.9177 22.9797 4.00772C23.0031 4.09774 23.0063 4.19179 22.9892 4.2832L21.0891 14.4165C21.062 14.5617 20.9849 14.6927 20.8714 14.7871C20.7578 14.8815 20.6148 14.9332 20.4672 14.9333H9.06682C8.91917 14.9332 8.7762 14.8815 8.66263 14.7871C8.54906 14.6927 8.47204 14.5617 8.44487 14.4165L6.54608 4.3022L6.0394 2.26667H4.63335C4.46538 2.26667 4.30428 2.19994 4.1855 2.08117C4.06673 1.96239 4 1.8013 4 1.63333ZM7.92932 4.8L9.59251 13.6667H19.9415L21.6047 4.8H7.92932ZM10.3335 14.9333C9.66163 14.9333 9.01724 15.2002 8.54214 15.6753C8.06703 16.1504 7.80012 16.7948 7.80012 17.4667C7.80012 18.1385 8.06703 18.7829 8.54214 19.258C9.01724 19.7331 9.66163 20 10.3335 20C11.0054 20 11.6498 19.7331 12.1249 19.258C12.6 18.7829 12.8669 18.1385 12.8669 17.4667C12.8669 16.7948 12.6 16.1504 12.1249 15.6753C11.6498 15.2002 11.0054 14.9333 10.3335 14.9333ZM19.2005 14.9333C18.5286 14.9333 17.8842 15.2002 17.4091 15.6753C16.934 16.1504 16.6671 16.7948 16.6671 17.4667C16.6671 18.1385 16.934 18.7829 17.4091 19.258C17.8842 19.7331 18.5286 20 19.2005 20C19.8724 20 20.5168 19.7331 20.9919 19.258C21.467 18.7829 21.7339 18.1385 21.7339 17.4667C21.7339 16.7948 21.467 16.1504 20.9919 15.6753C20.5168 15.2002 19.8724 14.9333 19.2005 14.9333ZM10.3335 16.2C10.6695 16.2 10.9917 16.3335 11.2292 16.571C11.4668 16.8085 11.6002 17.1307 11.6002 17.4667C11.6002 17.8026 11.4668 18.1248 11.2292 18.3623C10.9917 18.5999 10.6695 18.7333 10.3335 18.7333C9.99758 18.7333 9.67539 18.5999 9.43783 18.3623C9.20028 18.1248 9.06682 17.8026 9.06682 17.4667C9.06682 17.1307 9.20028 16.8085 9.43783 16.571C9.67539 16.3335 9.99758 16.2 10.3335 16.2ZM19.2005 16.2C19.5364 16.2 19.8586 16.3335 20.0962 16.571C20.3337 16.8085 20.4672 17.1307 20.4672 17.4667C20.4672 17.8026 20.3337 18.1248 20.0962 18.3623C19.8586 18.5999 19.5364 18.7333 19.2005 18.7333C18.8645 18.7333 18.5423 18.5999 18.3048 18.3623C18.0672 18.1248 17.9338 17.8026 17.9338 17.4667C17.9338 17.1307 18.0672 16.8085 18.3048 16.571C18.5423 16.3335 18.8645 16.2 19.2005 16.2Z" fill="#252B42"/>
</g>
<defs>
<filter id="filter0_d_179_17897" x="0" y="0" width="28" height="28" filterUnits="userSpaceOnUse" color-interpolation-filters="sRGB">
<feFlood flood-opacity="0" result="BackgroundImageFix"/>
<feColorMatrix in="SourceAlpha" type="matrix" values="0 0 0 0 0 0 0 0 0 0 0 0 0 0 0 0 0 0 127 0" result="hardAlpha"/>
<feOffset dy="4"/>
<feGaussianBlur stdDeviation="2"/>
<feComposite in2="hardAlpha" operator="out"/>
<feColorMatrix type="matrix" values="0 0 0 0 0 0 0 0 0 0 0 0 0 0 0 0 0 0 0.25 0"/>
<feBlend mode="normal" in2="BackgroundImageFix" result="effect1_dropShadow_179_17897"/>
<feBlend mode="normal" in="SourceGraphic" in2="effect1_dropShadow_179_17897" result="shape"/>
</filter>
</defs>
</svg>
