<svg width="26" height="27" viewBox="0 0 26 27" fill="none" xmlns="http://www.w3.org/2000/svg">
<g filter="url(#filter0_d_179_17894)">
<path d="M13.0011 5.95324L11.6367 4.55662L11.6362 4.55605C11.2883 4.20177 10.8733 3.92037 10.4154 3.72827C9.95755 3.53617 9.466 3.43723 8.96946 3.43723C8.47293 3.43723 7.98138 3.53617 7.52351 3.72827C7.06569 3.92035 6.65072 4.20172 6.30284 4.55595C5.58889 5.28087 5.18871 6.25752 5.18871 7.275C5.18871 8.29259 5.58898 9.26935 6.30308 9.9943L6.30337 9.99459L12.7784 16.5508L13.0007 16.776L13.2231 16.5508L19.6981 9.99459L19.6983 9.9943C20.4124 9.26935 20.8127 8.29259 20.8127 7.275C20.8127 6.25753 20.4125 5.28088 19.6986 4.55595C19.3509 4.20148 18.9359 3.91997 18.4781 3.72791C18.0203 3.53591 17.5288 3.43718 17.0324 3.4375C17.0322 3.4375 17.0319 3.4375 17.0317 3.4375L17.032 3.75M13.0011 5.95324L14.3581 4.56949L14.3588 4.5687L14.582 4.7875M13.0011 5.95324L14.3572 4.57036M13.0011 5.95324L14.3572 4.57036M17.032 3.75C16.5748 3.74935 16.1222 3.84089 15.7013 4.01915C15.2803 4.19741 14.8996 4.45874 14.582 4.7875M17.032 3.75C17.487 3.74962 17.9376 3.84008 18.3572 4.01609C18.7768 4.1921 19.1571 4.45011 19.4757 4.775L17.032 3.75ZM14.582 4.7875L14.3572 4.57036M14.582 4.7875L14.3572 4.57036M17.0319 2.8125L17.0317 2.8125C16.4518 2.81201 15.8777 2.9273 15.3429 3.15161C14.8082 3.37593 14.3236 3.70475 13.9176 4.11879L13.9164 4.11998L13.2227 4.81998L13.0007 5.04394L12.7788 4.81998L12.085 4.11998L12.0842 4.11913C11.6776 3.70575 11.1928 3.37744 10.658 3.15333C10.1233 2.92923 9.54928 2.81381 8.96946 2.81381C8.38965 2.81381 7.81563 2.92923 7.28088 3.15333C6.74614 3.37744 6.26136 3.70574 5.85479 4.1191L17.0319 2.8125ZM17.0319 2.8125C17.6118 2.81266 18.1858 2.92827 18.7206 3.15259C19.2554 3.37691 19.7401 3.70544 20.1466 4.11904C20.9755 4.96287 21.4399 6.09841 21.4399 7.28125C21.4399 8.46391 20.9756 9.59929 20.147 10.4431C20.1468 10.4432 20.1467 10.4434 20.1465 10.4435L13.0007 17.6802M17.0319 2.8125L13.0007 17.6802M13.0007 17.6802L5.8549 10.4435C5.85479 10.4434 5.85468 10.4433 5.85458 10.4432C5.02585 9.59939 4.56152 8.46396 4.56152 7.28125C4.56152 6.09846 5.02592 4.96295 5.85476 4.11913L13.0007 17.6802Z" fill="#BDBDBD" stroke="#252B42" stroke-width="0.625"/>
</g>
<defs>
<filter id="filter0_d_179_17894" x="-1" y="0" width="28" height="28" filterUnits="userSpaceOnUse" color-interpolation-filters="sRGB">
<feFlood flood-opacity="0" result="BackgroundImageFix"/>
<feColorMatrix in="SourceAlpha" type="matrix" values="0 0 0 0 0 0 0 0 0 0 0 0 0 0 0 0 0 0 127 0" result="hardAlpha"/>
<feOffset dy="4"/>
<feGaussianBlur stdDeviation="2"/>
<feComposite in2="hardAlpha" operator="out"/>
<feColorMatrix type="matrix" values="0 0 0 0 0 0 0 0 0 0 0 0 0 0 0 0 0 0 0.25 0"/>
<feBlend mode="normal" in2="BackgroundImageFix" result="effect1_dropShadow_179_17894"/>
<feBlend mode="normal" in="SourceGraphic" in2="effect1_dropShadow_179_17894" result="shape"/>
</filter>
</defs>
</svg>
