<svg width="55" height="55" viewBox="0 0 55 55" fill="none" xmlns="http://www.w3.org/2000/svg">
<path d="M17.9375 14.75C7.3125 23.25 6.25 34.9375 14.75 49.8125M37.0625 40.25C47.6875 31.75 48.75 20.2913 40.25 5.41628M27.5 2C20.737 2 14.251 4.6866 9.46878 9.46878C4.6866 14.251 2 20.737 2 27.5C2 34.263 4.6866 40.749 9.46878 45.5312C14.251 50.3134 20.737 53 27.5 53C34.263 53 40.749 50.3134 45.5312 45.5312C50.3134 40.749 53 34.263 53 27.5C53 20.737 50.3134 14.251 45.5312 9.46878C40.749 4.6866 34.263 2 27.5 2ZM27.5 11.5625C23.2731 11.5625 19.2193 13.2416 16.2305 16.2305C13.2416 19.2193 11.5625 23.2731 11.5625 27.5C11.5625 31.7269 13.2416 35.7807 16.2305 38.7695C19.2193 41.7584 23.2731 43.4375 27.5 43.4375C31.7269 43.4375 35.7807 41.7584 38.7695 38.7695C41.7584 35.7807 43.4375 31.7269 43.4375 27.5C43.4375 23.2731 41.7584 19.2193 38.7695 16.2305C35.7807 13.2416 31.7269 11.5625 27.5 11.5625Z" stroke="#CA234F" stroke-width="4" stroke-linejoin="round"/>
</svg>
