<svg width="21" height="21" viewBox="0 0 21 21" fill="none" xmlns="http://www.w3.org/2000/svg">
<g clip-path="url(#clip0_306_1566)">
<path d="M12.2474 18.9876L10.3384 20.9104L8.42951 18.9876C4.67766 18.1149 1.87689 14.7261 1.87689 10.6827C1.87689 5.97801 5.66766 2.15967 10.3384 2.15967C15.0092 2.15967 18.8 5.97801 18.8 10.6827C18.8 14.7261 15.9992 18.1149 12.2474 18.9876ZM5.28097 13.5942C6.52312 15.4608 8.38805 16.6489 10.4738 16.6489C12.5587 16.6489 14.4245 15.4616 15.6658 13.5942C14.2576 12.2685 12.4013 11.5323 10.4738 11.5351C8.54603 11.5321 6.6894 12.2683 5.28097 13.5942ZM10.3384 9.83044C11.0117 9.83044 11.6573 9.56105 12.1334 9.08153C12.6094 8.60202 12.8769 7.95165 12.8769 7.27351C12.8769 6.59538 12.6094 5.94501 12.1334 5.4655C11.6573 4.98598 11.0117 4.71659 10.3384 4.71659C9.66519 4.71659 9.01952 4.98598 8.54347 5.4655C8.06741 5.94501 7.79997 6.59538 7.79997 7.27351C7.79997 7.95165 8.06741 8.60202 8.54347 9.08153C9.01952 9.56105 9.66519 9.83044 10.3384 9.83044Z" fill="white"/>
</g>
<defs>
<clipPath id="clip0_306_1566">
<rect width="20.3077" height="20.4554" fill="white" transform="translate(0.18457 0.455078)"/>
</clipPath>
</defs>
</svg>
