<svg width="19" height="19" viewBox="0 0 19 19" fill="none" xmlns="http://www.w3.org/2000/svg">
<g clip-path="url(#clip0_306_1582)">
<path d="M17.9332 0.861821C17.8822 0.733755 17.784 0.630444 17.6593 0.57338C17.5345 0.516317 17.3927 0.509894 17.2634 0.555448C17.1341 0.601002 17.0272 0.695025 16.9649 0.817958C16.9026 0.940891 16.8898 1.08327 16.9291 1.21547C17.7467 3.582 16.1239 5.34937 14.8867 6.29598L14.3868 5.5745C14.2187 5.33253 13.843 5.13133 13.5508 5.12778L10.7454 5.14019C10.4027 5.15062 10.0691 5.25413 9.78001 5.43977L1.51329 11.2781C1.32101 11.4144 1.19017 11.6219 1.14943 11.8551C1.10869 12.0883 1.16137 12.3283 1.29593 12.5225L5.05265 17.9363C5.33425 18.3396 5.78393 18.2908 6.18521 18.009L14.4519 12.1698C14.6895 12.0005 14.9641 11.6353 15.0609 11.3561L15.9391 8.56856C16.0359 8.29025 15.977 7.86569 15.8089 7.62372L15.5044 7.18409C17.1659 5.90156 18.8907 3.63518 17.9332 0.861821ZM14.0867 9.1562C13.9344 9.26358 13.7626 9.33967 13.5811 9.38014C13.3996 9.42061 13.212 9.42467 13.0289 9.39207C12.8459 9.35948 12.671 9.29087 12.5143 9.19018C12.3575 9.08948 12.222 8.95867 12.1155 8.80521C11.8999 8.49469 11.8153 8.11066 11.8805 7.73744C11.9457 7.36421 12.1552 7.03227 12.4631 6.81449C12.7045 6.64415 12.9927 6.55403 13.2874 6.55673C13.5822 6.55943 13.8687 6.65482 14.107 6.82956C13.8676 6.97492 13.7031 7.06001 13.6723 7.0733C13.5632 7.12569 13.475 7.21384 13.4221 7.32332C13.3693 7.43279 13.355 7.55709 13.3815 7.67585C13.4079 7.79462 13.4737 7.9008 13.5679 7.97699C13.6622 8.05319 13.7793 8.09489 13.9002 8.09525C13.9759 8.09525 14.0533 8.07753 14.1263 8.04296C14.2971 7.96142 14.4801 7.8648 14.6711 7.75047C14.715 8.01642 14.6834 8.28947 14.5801 8.53817C14.4767 8.78686 14.3057 9.0011 14.0867 9.1562Z" fill="white"/>
</g>
<defs>
<clipPath id="clip0_306_1582">
<rect width="17.6" height="17.7268" fill="white" transform="translate(0.871735 0.50293)"/>
</clipPath>
</defs>
</svg>
