<svg width="12" height="14" viewBox="0 0 12 14" fill="none" xmlns="http://www.w3.org/2000/svg">
<path fill-rule="evenodd" clip-rule="evenodd" d="M8.5 3.99998C8.5 4.66302 8.2366 5.2989 7.76777 5.76774C7.29893 6.23659 6.66304 6.49998 6 6.49998C5.33696 6.49998 4.70108 6.23659 4.23224 5.76774C3.76339 5.2989 3.5 4.66302 3.5 3.99998C3.5 3.33694 3.76339 2.70105 4.23224 2.23221C4.70108 1.76337 5.33696 1.49998 6 1.49998C6.66304 1.49998 7.29893 1.76337 7.76777 2.23221C8.2366 2.70105 8.5 3.33694 8.5 3.99998ZM8.561 7.07298C9.1923 6.54662 9.6461 5.83856 9.8608 5.04512C10.0754 4.25167 10.0403 3.41138 9.7604 2.63856C9.4805 1.86574 8.9693 1.19791 8.2964 0.725922C7.62345 0.253942 6.82145 0.000732422 5.9995 0.000732422C5.17755 0.000732422 4.37555 0.253942 3.70262 0.725922C3.02969 1.19791 2.51849 1.86574 2.23859 2.63856C1.95868 3.41138 1.92364 4.25167 2.13825 5.04512C2.35286 5.83856 2.80669 6.54662 3.438 7.07298C2.45359 7.53838 1.61427 8.26273 1.0099 9.16848C0.405532 10.0743 0.0588619 11.1273 0.0070019 12.215C0.0021819 12.411 0.074282 12.6011 0.207882 12.7445C0.341472 12.888 0.525932 12.9735 0.721772 12.9826C0.917602 12.9918 1.10923 12.9239 1.25562 12.7935C1.40201 12.6631 1.49153 12.4806 1.505 12.285C1.55952 11.1295 2.0569 10.0394 2.89391 9.24098C3.73091 8.44251 4.84324 7.99705 6 7.99705C7.15676 7.99705 8.2691 8.44251 9.1061 9.24098C9.9431 10.0394 10.4405 11.1295 10.495 12.285C10.4975 12.3849 10.5198 12.4832 10.5608 12.5743C10.6018 12.6654 10.6606 12.7474 10.7337 12.8154C10.8068 12.8835 10.8928 12.9363 10.9865 12.9707C11.0803 13.0051 11.18 13.0204 11.2798 13.0157C11.3796 13.0111 11.4774 12.9865 11.5676 12.9435C11.6577 12.9005 11.7384 12.84 11.8048 12.7654C11.8713 12.6908 11.9221 12.6037 11.9544 12.5092C11.9868 12.4147 11.9999 12.3146 11.993 12.215C11.941 11.1272 11.5942 10.0741 10.9897 9.16828C10.3851 8.26253 9.5456 7.53824 8.561 7.07298Z" fill="black"/>
</svg>
