<svg width="30" height="31" viewBox="0 0 30 31" fill="none" xmlns="http://www.w3.org/2000/svg">
<path d="M14.5714 14.9448C13.3929 14.9448 12.4286 14.0106 12.4286 12.8687C12.4286 11.7269 13.3929 10.7927 14.5714 10.7927C15.75 10.7927 16.7143 11.7269 16.7143 12.8687C16.7143 14.0106 15.75 14.9448 14.5714 14.9448ZM21 13.0764C21 9.30828 18.1607 6.64053 14.5714 6.64053C10.9821 6.64053 8.14286 9.30828 8.14286 13.0764C8.14286 15.5054 10.2321 18.7233 14.5714 22.564C18.9107 18.7233 21 15.5054 21 13.0764ZM14.5714 4.56445C19.0714 4.56445 23.1429 7.90693 23.1429 13.0764C23.1429 16.5226 20.2821 20.6021 14.5714 25.3252C8.86071 20.6021 6 16.5226 6 13.0764C6 7.90693 10.0714 4.56445 14.5714 4.56445Z" fill="black"/>
</svg>
