<svg width="30" height="32" viewBox="0 0 30 32" fill="none" xmlns="http://www.w3.org/2000/svg">
<path d="M15 25.6105C9.73744 25.6105 5.43571 21.2844 5.43571 15.9477C5.43571 10.6109 9.73744 6.28477 15 6.28477C20.2625 6.28477 24.5643 10.6109 24.5643 15.9477C24.5643 21.2844 20.2625 25.6105 15 25.6105Z" stroke="black" stroke-width="2.3"/>
<path d="M16.0004 18.2029L16.7384 17.4577C16.8379 17.3586 16.9636 17.2907 17.1005 17.2624C17.2374 17.2341 17.3794 17.2464 17.5095 17.298L18.409 17.6606C18.5404 17.7145 18.6531 17.8064 18.7328 17.9248C18.8126 18.0432 18.8558 18.1828 18.8571 18.326V19.9893C18.8564 20.0867 18.8361 20.183 18.7975 20.2722C18.7589 20.3615 18.7029 20.442 18.6327 20.5088C18.5625 20.5756 18.4796 20.6274 18.3891 20.6611C18.2986 20.6947 18.2022 20.7095 18.1059 20.7046C11.8025 20.3087 10.5306 14.9195 10.2901 12.8569C10.2789 12.7556 10.2891 12.6531 10.32 12.5561C10.3509 12.4591 10.4018 12.3698 10.4694 12.294C10.5369 12.2183 10.6196 12.1579 10.7119 12.1167C10.8042 12.0755 10.9042 12.0546 11.0051 12.0552H12.5966C12.7386 12.0556 12.8773 12.0989 12.9947 12.1796C13.1121 12.2602 13.203 12.3744 13.2556 12.5076L13.6148 13.4158C13.6676 13.5466 13.681 13.6901 13.6535 13.8286C13.626 13.967 13.5586 14.0942 13.4599 14.1942L12.7218 14.9394C12.7218 14.9394 13.1469 17.8436 16.0004 18.2029Z" fill="black"/>
</svg>
